<svg width="1276" height="711" xmlns="http://www.w3.org/2000/svg"><g><path d="M-13.942393437027931,-49.438010565936565L-38.33476074039936,19.779368210583925L11.924962028861046,-44.57824803888798Z" fill="#e93855" stroke="#e93855" fill-opacity="1" stroke-opacity="1"/><path d="M-13.942393437027931,-49.438010565936565L11.924962028861046,-44.57824803888798L171.07506185770035,-68.13622759655118Z" fill="#ef3956" stroke="#ef3956" fill-opacity="1" stroke-opacity="1"/><path d="M11.924962028861046,-44.57824803888798L-38.33476074039936,19.779368210583925L77.03648805618286,83.981570340693Z" fill="#eb4f58" stroke="#eb4f58" fill-opacity="1" stroke-opacity="1"/><path d="M11.924962028861046,-44.57824803888798L77.03648805618286,83.981570340693L138.25688913464546,47.791103571653366Z" fill="#f15e5a" stroke="#f15e5a" fill-opacity="1" stroke-opacity="1"/><path d="M11.924962028861046,-44.57824803888798L138.25688913464546,47.791103571653366L171.07506185770035,-68.13622759655118Z" fill="#f45058" stroke="#f45058" fill-opacity="1" stroke-opacity="1"/><path d="M171.07506185770035,-68.13622759655118L138.25688913464546,47.791103571653366L285.84542743861675,-13.21595560759306Z" fill="#fc655b" stroke="#fc655b" fill-opacity="1" stroke-opacity="1"/><path d="M171.07506185770035,-68.13622759655118L285.84542743861675,-13.21595560759306L355.07850505411625,-36.01291909813881Z" fill="#fe6861" stroke="#fe6861" fill-opacity="1" stroke-opacity="1"/><path d="M171.07506185770035,-68.13622759655118L355.07850505411625,-36.01291909813881L443.6650713905692,-42.610134333372116Z" fill="#fe6e66" stroke="#fe6e66" fill-opacity="1" stroke-opacity="1"/><path d="M171.07506185770035,-68.13622759655118L443.6650713905692,-42.610134333372116L537.0488595589995,-62.47312296181917Z" fill="#fe766d" stroke="#fe766d" fill-opacity="1" stroke-opacity="1"/><path d="M171.07506185770035,-68.13622759655118L537.0488595589995,-62.47312296181917L976.0692533291876,-89.79785218834877Z" fill="#f67f75" stroke="#f67f75" fill-opacity="1" stroke-opacity="1"/><path d="M285.84542743861675,-13.21595560759306L138.25688913464546,47.791103571653366L284.1846794448793,75.18962513655424Z" fill="#fd7f61" stroke="#fd7f61" fill-opacity="1" stroke-opacity="1"/><path d="M285.84542743861675,-13.21595560759306L284.1846794448793,75.18962513655424L333.0996352247894,42.87823889404535Z" fill="#fe8b68" stroke="#fe8b68" fill-opacity="1" stroke-opacity="1"/><path d="M285.84542743861675,-13.21595560759306L333.0996352247894,42.87823889404535L355.07850505411625,-36.01291909813881Z" fill="#fe8169" stroke="#fe8169" fill-opacity="1" stroke-opacity="1"/><path d="M355.07850505411625,-36.01291909813881L333.0996352247894,42.87823889404535L461.4670977368951,58.56260409578681Z" fill="#fe9671" stroke="#fe9671" fill-opacity="1" stroke-opacity="1"/><path d="M355.07850505411625,-36.01291909813881L461.4670977368951,58.56260409578681L443.6650713905692,-42.610134333372116Z" fill="#fe9274" stroke="#fe9274" fill-opacity="1" stroke-opacity="1"/><path d="M443.6650713905692,-42.610134333372116L461.4670977368951,58.56260409578681L537.9902574419975,35.70954330265522Z" fill="#fb9f77" stroke="#fb9f77" fill-opacity="1" stroke-opacity="1"/><path d="M443.6650713905692,-42.610134333372116L537.9902574419975,35.70954330265522L537.0488595589995,-62.47312296181917Z" fill="#fa9076" stroke="#fa9076" fill-opacity="1" stroke-opacity="1"/><path d="M537.0488595589995,-62.47312296181917L537.9902574419975,35.70954330265522L655.7720587030053,-19.990800339728594Z" fill="#f69778" stroke="#f69778" fill-opacity="1" stroke-opacity="1"/><path d="M537.0488595589995,-62.47312296181917L655.7720587030053,-19.990800339728594L788.9026133716106,-43.491217847913504Z" fill="#ee8e79" stroke="#ee8e79" fill-opacity="1" stroke-opacity="1"/><path d="M537.0488595589995,-62.47312296181917L788.9026133716106,-43.491217847913504L976.0692533291876,-89.79785218834877Z" fill="#da7c77" stroke="#da7c77" fill-opacity="1" stroke-opacity="1"/><path d="M655.7720587030053,-19.990800339728594L537.9902574419975,35.70954330265522L642.5374460965395,78.84565295651555Z" fill="#f4ab7c" stroke="#f4ab7c" fill-opacity="1" stroke-opacity="1"/><path d="M655.7720587030053,-19.990800339728594L642.5374460965395,78.84565295651555L727.6826519146562,10.276262871921062Z" fill="#eba67c" stroke="#eba67c" fill-opacity="1" stroke-opacity="1"/><path d="M655.7720587030053,-19.990800339728594L727.6826519146562,10.276262871921062L788.9026133716106,-43.491217847913504Z" fill="#e39279" stroke="#e39279" fill-opacity="1" stroke-opacity="1"/><path d="M788.9026133716106,-43.491217847913504L727.6826519146562,10.276262871921062L816.066597532481,48.13545932993293Z" fill="#d9977a" stroke="#d9977a" fill-opacity="1" stroke-opacity="1"/><path d="M788.9026133716106,-43.491217847913504L816.066597532481,48.13545932993293L824.7970335185528,-27.11829097941518Z" fill="#d39079" stroke="#d39079" fill-opacity="1" stroke-opacity="1"/><path d="M788.9026133716106,-43.491217847913504L824.7970335185528,-27.11829097941518L976.0692533291876,-89.79785218834877Z" fill="#c97878" stroke="#c97878" fill-opacity="1" stroke-opacity="1"/><path d="M824.7970335185528,-27.11829097941518L816.066597532481,48.13545932993293L948.2632862217724,79.32520840317011Z" fill="#c99b7c" stroke="#c99b7c" fill-opacity="1" stroke-opacity="1"/><path d="M824.7970335185528,-27.11829097941518L948.2632862217724,79.32520840317011L976.0692533291876,-89.79785218834877Z" fill="#bc7f7f" stroke="#bc7f7f" fill-opacity="1" stroke-opacity="1"/><path d="M976.0692533291876,-89.79785218834877L948.2632862217724,79.32520840317011L1028.8976710103452,-74.48413660749793Z" fill="#ab6d85" stroke="#ab6d85" fill-opacity="1" stroke-opacity="1"/><path d="M976.0692533291876,-89.79785218834877L1028.8976710103452,-74.48413660749793L1362.736145425588,-37.92051874101162Z" fill="#894490" stroke="#894490" fill-opacity="1" stroke-opacity="1"/><path d="M1028.8976710103452,-74.48413660749793L948.2632862217724,79.32520840317011L1075.5009903013706,39.7519538924098Z" fill="#a3788a" stroke="#a3788a" fill-opacity="1" stroke-opacity="1"/><path d="M1028.8976710103452,-74.48413660749793L1075.5009903013706,39.7519538924098L1183.3628740534186,-25.20363112911582Z" fill="#905b90" stroke="#905b90" fill-opacity="1" stroke-opacity="1"/><path d="M1028.8976710103452,-74.48413660749793L1183.3628740534186,-25.20363112911582L1250.3683667629957,-37.85487053915858Z" fill="#824794" stroke="#824794" fill-opacity="1" stroke-opacity="1"/><path d="M1028.8976710103452,-74.48413660749793L1250.3683667629957,-37.85487053915858L1362.736145425588,-37.92051874101162Z" fill="#7f3a9a" stroke="#7f3a9a" fill-opacity="1" stroke-opacity="1"/><path d="M1183.3628740534186,-25.20363112911582L1075.5009903013706,39.7519538924098L1167.858487535268,51.425998490303755Z" fill="#856396" stroke="#856396" fill-opacity="1" stroke-opacity="1"/><path d="M1183.3628740534186,-25.20363112911582L1167.858487535268,51.425998490303755L1239.4329874031246,79.304055608809Z" fill="#7f5f9d" stroke="#7f5f9d" fill-opacity="1" stroke-opacity="1"/><path d="M1183.3628740534186,-25.20363112911582L1239.4329874031246,79.304055608809L1250.3683667629957,-37.85487053915858Z" fill="#7f4e9e" stroke="#7f4e9e" fill-opacity="1" stroke-opacity="1"/><path d="M1250.3683667629957,-37.85487053915858L1239.4329874031246,79.304055608809L1362.736145425588,-37.92051874101162Z" fill="#7f42a3" stroke="#7f42a3" fill-opacity="1" stroke-opacity="1"/><path d="M1362.736145425588,-37.92051874101162L1239.4329874031246,79.304055608809L1371.53205094859,83.23831742629409Z" fill="#7f4aa9" stroke="#7f4aa9" fill-opacity="1" stroke-opacity="1"/><path d="M1362.736145425588,-37.92051874101162L1371.53205094859,83.23831742629409L1376.643698848784,122.22368117421865Z" fill="#7f48ae" stroke="#7f48ae" fill-opacity="1" stroke-opacity="1"/><path d="M-38.33476074039936,19.779368210583925L-82.35921980813146,226.08782628551126L-47.57466930896044,149.95372034609318Z" fill="#e56e5f" stroke="#e56e5f" fill-opacity="1" stroke-opacity="1"/><path d="M-38.33476074039936,19.779368210583925L-47.57466930896044,149.95372034609318L14.20523438602686,142.6887395232916Z" fill="#e8695c" stroke="#e8695c" fill-opacity="1" stroke-opacity="1"/><path d="M-38.33476074039936,19.779368210583925L14.20523438602686,142.6887395232916L77.03648805618286,83.981570340693Z" fill="#ec685b" stroke="#ec685b" fill-opacity="1" stroke-opacity="1"/><path d="M77.03648805618286,83.981570340693L14.20523438602686,142.6887395232916L138.78282753750682,127.81796645373106Z" fill="#f1815f" stroke="#f1815f" fill-opacity="1" stroke-opacity="1"/><path d="M77.03648805618286,83.981570340693L138.78282753750682,127.81796645373106L138.25688913464546,47.791103571653366Z" fill="#f57d5e" stroke="#f57d5e" fill-opacity="1" stroke-opacity="1"/><path d="M138.25688913464546,47.791103571653366L138.78282753750682,127.81796645373106L284.1846794448793,75.18962513655424Z" fill="#fb885f" stroke="#fb885f" fill-opacity="1" stroke-opacity="1"/><path d="M284.1846794448793,75.18962513655424L138.78282753750682,127.81796645373106L275.06113383919,175.26352908462286Z" fill="#fea266" stroke="#fea266" fill-opacity="1" stroke-opacity="1"/><path d="M284.1846794448793,75.18962513655424L275.06113383919,175.26352908462286L388.91069132834673,129.0199565514922Z" fill="#feb270" stroke="#feb270" fill-opacity="1" stroke-opacity="1"/><path d="M284.1846794448793,75.18962513655424L388.91069132834673,129.0199565514922L333.0996352247894,42.87823889404535Z" fill="#fea46e" stroke="#fea46e" fill-opacity="1" stroke-opacity="1"/><path d="M333.0996352247894,42.87823889404535L388.91069132834673,129.0199565514922L461.4670977368951,58.56260409578681Z" fill="#ffae75" stroke="#ffae75" fill-opacity="1" stroke-opacity="1"/><path d="M461.4670977368951,58.56260409578681L388.91069132834673,129.0199565514922L460.35866433754563,140.93416487798095Z" fill="#fec17b" stroke="#fec17b" fill-opacity="1" stroke-opacity="1"/><path d="M461.4670977368951,58.56260409578681L460.35866433754563,140.93416487798095L537.9902574419975,35.70954330265522Z" fill="#fbb77b" stroke="#fbb77b" fill-opacity="1" stroke-opacity="1"/><path d="M537.9902574419975,35.70954330265522L460.35866433754563,140.93416487798095L578.0606384016573,184.5371537655592Z" fill="#f9ca7e" stroke="#f9ca7e" fill-opacity="1" stroke-opacity="1"/><path d="M537.9902574419975,35.70954330265522L578.0606384016573,184.5371537655592L627.7315959520638,124.10033166408539Z" fill="#f6ca80" stroke="#f6ca80" fill-opacity="1" stroke-opacity="1"/><path d="M537.9902574419975,35.70954330265522L627.7315959520638,124.10033166408539L642.5374460965395,78.84565295651555Z" fill="#f5be7e" stroke="#f5be7e" fill-opacity="1" stroke-opacity="1"/><path d="M642.5374460965395,78.84565295651555L627.7315959520638,124.10033166408539L748.184248637408,162.7402682043612Z" fill="#eccd82" stroke="#eccd82" fill-opacity="1" stroke-opacity="1"/><path d="M642.5374460965395,78.84565295651555L748.184248637408,162.7402682043612L727.6826519146562,10.276262871921062Z" fill="#e6bc7f" stroke="#e6bc7f" fill-opacity="1" stroke-opacity="1"/><path d="M727.6826519146562,10.276262871921062L748.184248637408,162.7402682043612L816.066597532481,48.13545932993293Z" fill="#dcb37e" stroke="#dcb37e" fill-opacity="1" stroke-opacity="1"/><path d="M816.066597532481,48.13545932993293L748.184248637408,162.7402682043612L845.1037902757525,135.7073562964797Z" fill="#d5c180" stroke="#d5c180" fill-opacity="1" stroke-opacity="1"/><path d="M816.066597532481,48.13545932993293L845.1037902757525,135.7073562964797L948.2632862217724,79.32520840317011Z" fill="#c8af80" stroke="#c8af80" fill-opacity="1" stroke-opacity="1"/><path d="M948.2632862217724,79.32520840317011L845.1037902757525,135.7073562964797L979.9094827845693,114.22480372712016Z" fill="#baae86" stroke="#baae86" fill-opacity="1" stroke-opacity="1"/><path d="M948.2632862217724,79.32520840317011L979.9094827845693,114.22480372712016L1075.5009903013706,39.7519538924098Z" fill="#a8938c" stroke="#a8938c" fill-opacity="1" stroke-opacity="1"/><path d="M1075.5009903013706,39.7519538924098L979.9094827845693,114.22480372712016L1087.935343515128,129.58128221333027Z" fill="#9d9291" stroke="#9d9291" fill-opacity="1" stroke-opacity="1"/><path d="M1075.5009903013706,39.7519538924098L1087.935343515128,129.58128221333027L1167.858487535268,51.425998490303755Z" fill="#8d7e96" stroke="#8d7e96" fill-opacity="1" stroke-opacity="1"/><path d="M1167.858487535268,51.425998490303755L1087.935343515128,129.58128221333027L1158.4975319355726,146.8860026821494Z" fill="#87879a" stroke="#87879a" fill-opacity="1" stroke-opacity="1"/><path d="M1167.858487535268,51.425998490303755L1158.4975319355726,146.8860026821494L1239.4329874031246,79.304055608809Z" fill="#80779e" stroke="#80779e" fill-opacity="1" stroke-opacity="1"/><path d="M1239.4329874031246,79.304055608809L1158.4975319355726,146.8860026821494L1241.1503689177334,122.45019882917404Z" fill="#807ca2" stroke="#807ca2" fill-opacity="1" stroke-opacity="1"/><path d="M1239.4329874031246,79.304055608809L1241.1503689177334,122.45019882917404L1371.53205094859,83.23831742629409Z" fill="#8067a8" stroke="#8067a8" fill-opacity="1" stroke-opacity="1"/><path d="M1371.53205094859,83.23831742629409L1241.1503689177334,122.45019882917404L1376.643698848784,122.22368117421865Z" fill="#8065ad" stroke="#8065ad" fill-opacity="1" stroke-opacity="1"/><path d="M-47.57466930896044,149.95372034609318L-82.35921980813146,226.08782628551126L14.20523438602686,142.6887395232916Z" fill="#e7806a" stroke="#e7806a" fill-opacity="1" stroke-opacity="1"/><path d="M14.20523438602686,142.6887395232916L-82.35921980813146,226.08782628551126L61.69490089640021,265.0865064561367Z" fill="#ea9574" stroke="#ea9574" fill-opacity="1" stroke-opacity="1"/><path d="M14.20523438602686,142.6887395232916L61.69490089640021,265.0865064561367L140.82727098837495,236.45915819332004Z" fill="#f1a477" stroke="#f1a477" fill-opacity="1" stroke-opacity="1"/><path d="M14.20523438602686,142.6887395232916L140.82727098837495,236.45915819332004L138.78282753750682,127.81796645373106Z" fill="#f3986c" stroke="#f3986c" fill-opacity="1" stroke-opacity="1"/><path d="M138.78282753750682,127.81796645373106L140.82727098837495,236.45915819332004L275.06113383919,175.26352908462286Z" fill="#fbac71" stroke="#fbac71" fill-opacity="1" stroke-opacity="1"/><path d="M275.06113383919,175.26352908462286L140.82727098837495,236.45915819332004L259.15561981499195,271.6885219141841Z" fill="#fec57f" stroke="#fec57f" fill-opacity="1" stroke-opacity="1"/><path d="M275.06113383919,175.26352908462286L259.15561981499195,271.6885219141841L352.77641117572784,270.8360808901489Z" fill="#fed68a" stroke="#fed68a" fill-opacity="1" stroke-opacity="1"/><path d="M275.06113383919,175.26352908462286L352.77641117572784,270.8360808901489L388.91069132834673,129.0199565514922Z" fill="#fece83" stroke="#fece83" fill-opacity="1" stroke-opacity="1"/><path d="M388.91069132834673,129.0199565514922L352.77641117572784,270.8360808901489L459.167501591146,264.3325310200453Z" fill="#ffe592" stroke="#ffe592" fill-opacity="1" stroke-opacity="1"/><path d="M388.91069132834673,129.0199565514922L459.167501591146,264.3325310200453L460.35866433754563,140.93416487798095Z" fill="#fedb8a" stroke="#fedb8a" fill-opacity="1" stroke-opacity="1"/><path d="M460.35866433754563,140.93416487798095L459.167501591146,264.3325310200453L537.3776220530272,239.75269364193082Z" fill="#fbeb95" stroke="#fbeb95" fill-opacity="1" stroke-opacity="1"/><path d="M460.35866433754563,140.93416487798095L537.3776220530272,239.75269364193082L578.0606384016573,184.5371537655592Z" fill="#f9e38f" stroke="#f9e38f" fill-opacity="1" stroke-opacity="1"/><path d="M578.0606384016573,184.5371537655592L537.3776220530272,239.75269364193082L679.5339120365679,247.43776809424162Z" fill="#f5f39b" stroke="#f5f39b" fill-opacity="1" stroke-opacity="1"/><path d="M578.0606384016573,184.5371537655592L679.5339120365679,247.43776809424162L627.7315959520638,124.10033166408539Z" fill="#f3e792" stroke="#f3e792" fill-opacity="1" stroke-opacity="1"/><path d="M627.7315959520638,124.10033166408539L679.5339120365679,247.43776809424162L748.184248637408,162.7402682043612Z" fill="#eae190" stroke="#eae190" fill-opacity="1" stroke-opacity="1"/><path d="M748.184248637408,162.7402682043612L679.5339120365679,247.43776809424162L749.2865446209908,251.48246238008142Z" fill="#e3ee9a" stroke="#e3ee9a" fill-opacity="1" stroke-opacity="1"/><path d="M748.184248637408,162.7402682043612L749.2865446209908,251.48246238008142L820.3266597911716,267.2443700581789Z" fill="#daed9b" stroke="#daed9b" fill-opacity="1" stroke-opacity="1"/><path d="M748.184248637408,162.7402682043612L820.3266597911716,267.2443700581789L845.1037902757525,135.7073562964797Z" fill="#d5dc91" stroke="#d5dc91" fill-opacity="1" stroke-opacity="1"/><path d="M845.1037902757525,135.7073562964797L820.3266597911716,267.2443700581789L926.1380898579955,230.06731431931257Z" fill="#c9de98" stroke="#c9de98" fill-opacity="1" stroke-opacity="1"/><path d="M845.1037902757525,135.7073562964797L926.1380898579955,230.06731431931257L979.9094827845693,114.22480372712016Z" fill="#bcc290" stroke="#bcc290" fill-opacity="1" stroke-opacity="1"/><path d="M979.9094827845693,114.22480372712016L926.1380898579955,230.06731431931257L1061.3252756558359,227.50571224838495Z" fill="#abc09f" stroke="#abc09f" fill-opacity="1" stroke-opacity="1"/><path d="M979.9094827845693,114.22480372712016L1061.3252756558359,227.50571224838495L1087.935343515128,129.58128221333027Z" fill="#9eaa9c" stroke="#9eaa9c" fill-opacity="1" stroke-opacity="1"/><path d="M1087.935343515128,129.58128221333027L1061.3252756558359,227.50571224838495L1158.4975319355726,146.8860026821494Z" fill="#8fa3a4" stroke="#8fa3a4" fill-opacity="1" stroke-opacity="1"/><path d="M1158.4975319355726,146.8860026821494L1061.3252756558359,227.50571224838495L1151.0349674522877,267.9854048602283Z" fill="#8ab0b2" stroke="#8ab0b2" fill-opacity="1" stroke-opacity="1"/><path d="M1158.4975319355726,146.8860026821494L1151.0349674522877,267.9854048602283L1254.3872055783868,251.29560926929116Z" fill="#80a8ba" stroke="#80a8ba" fill-opacity="1" stroke-opacity="1"/><path d="M1158.4975319355726,146.8860026821494L1254.3872055783868,251.29560926929116L1241.1503689177334,122.45019882917404Z" fill="#8090b1" stroke="#8090b1" fill-opacity="1" stroke-opacity="1"/><path d="M1241.1503689177334,122.45019882917404L1254.3872055783868,251.29560926929116L1348.9447056129575,246.9038425758481Z" fill="#8091bf" stroke="#8091bf" fill-opacity="1" stroke-opacity="1"/><path d="M1241.1503689177334,122.45019882917404L1348.9447056129575,246.9038425758481L1376.643698848784,122.22368117421865Z" fill="#807ab8" stroke="#807ab8" fill-opacity="1" stroke-opacity="1"/><path d="M1376.643698848784,122.22368117421865L1348.9447056129575,246.9038425758481L1343.133837301284,321.8410010635853Z" fill="#808ccc" stroke="#808ccc" fill-opacity="1" stroke-opacity="1"/><path d="M1376.643698848784,122.22368117421865L1343.133837301284,321.8410010635853L1343.5589064098895,543.9526572264731Z" fill="#808fd4" stroke="#808fd4" fill-opacity="1" stroke-opacity="1"/><path d="M1376.643698848784,122.22368117421865L1343.5589064098895,543.9526572264731L1364.2085298895836,874.737885221839Z" fill="#477edb" stroke="#477edb" fill-opacity="1" stroke-opacity="1"/><path d="M-82.35921980813146,226.08782628551126L-64.11214135587215,620.8621931262314L-69.22994183376431,313.0122251994908Z" fill="#da9180" stroke="#da9180" fill-opacity="1" stroke-opacity="1"/><path d="M-82.35921980813146,226.08782628551126L-69.22994183376431,313.0122251994908L61.69490089640021,265.0865064561367Z" fill="#e8997c" stroke="#e8997c" fill-opacity="1" stroke-opacity="1"/><path d="M61.69490089640021,265.0865064561367L-69.22994183376431,313.0122251994908L84.46666795760393,318.15781604498625Z" fill="#eda47f" stroke="#eda47f" fill-opacity="1" stroke-opacity="1"/><path d="M61.69490089640021,265.0865064561367L84.46666795760393,318.15781604498625L140.82727098837495,236.45915819332004Z" fill="#f3b17f" stroke="#f3b17f" fill-opacity="1" stroke-opacity="1"/><path d="M140.82727098837495,236.45915819332004L84.46666795760393,318.15781604498625L138.84171528741717,373.9677950553596Z" fill="#f5b582" stroke="#f5b582" fill-opacity="1" stroke-opacity="1"/><path d="M140.82727098837495,236.45915819332004L138.84171528741717,373.9677950553596L212.2428858652711,343.7895888835192Z" fill="#f9bd84" stroke="#f9bd84" fill-opacity="1" stroke-opacity="1"/><path d="M140.82727098837495,236.45915819332004L212.2428858652711,343.7895888835192L259.15561981499195,271.6885219141841Z" fill="#fdc583" stroke="#fdc583" fill-opacity="1" stroke-opacity="1"/><path d="M259.15561981499195,271.6885219141841L212.2428858652711,343.7895888835192L378.1649625301361,361.3350344635546Z" fill="#fed48e" stroke="#fed48e" fill-opacity="1" stroke-opacity="1"/><path d="M259.15561981499195,271.6885219141841L378.1649625301361,361.3350344635546L352.77641117572784,270.8360808901489Z" fill="#fedd92" stroke="#fedd92" fill-opacity="1" stroke-opacity="1"/><path d="M352.77641117572784,270.8360808901489L378.1649625301361,361.3350344635546L459.36346780508757,330.62963154166937Z" fill="#ffea9b" stroke="#ffea9b" fill-opacity="1" stroke-opacity="1"/><path d="M352.77641117572784,270.8360808901489L459.36346780508757,330.62963154166937L459.167501591146,264.3325310200453Z" fill="#ffef9c" stroke="#ffef9c" fill-opacity="1" stroke-opacity="1"/><path d="M459.167501591146,264.3325310200453L459.36346780508757,330.62963154166937L511.30685245618224,343.07416547089815Z" fill="#fcf29f" stroke="#fcf29f" fill-opacity="1" stroke-opacity="1"/><path d="M459.167501591146,264.3325310200453L511.30685245618224,343.07416547089815L537.3776220530272,239.75269364193082Z" fill="#faf49e" stroke="#faf49e" fill-opacity="1" stroke-opacity="1"/><path d="M537.3776220530272,239.75269364193082L511.30685245618224,343.07416547089815L646.64107138291,333.3629267476499Z" fill="#f7f7a2" stroke="#f7f7a2" fill-opacity="1" stroke-opacity="1"/><path d="M537.3776220530272,239.75269364193082L646.64107138291,333.3629267476499L679.5339120365679,247.43776809424162Z" fill="#f4f9a1" stroke="#f4f9a1" fill-opacity="1" stroke-opacity="1"/><path d="M679.5339120365679,247.43776809424162L646.64107138291,333.3629267476499L730.6883555836976,334.7408074699342Z" fill="#eaf7a3" stroke="#eaf7a3" fill-opacity="1" stroke-opacity="1"/><path d="M679.5339120365679,247.43776809424162L730.6883555836976,334.7408074699342L749.2865446209908,251.48246238008142Z" fill="#e4f4a1" stroke="#e4f4a1" fill-opacity="1" stroke-opacity="1"/><path d="M749.2865446209908,251.48246238008142L730.6883555836976,334.7408074699342L820.3266597911716,267.2443700581789Z" fill="#dbf1a1" stroke="#dbf1a1" fill-opacity="1" stroke-opacity="1"/><path d="M820.3266597911716,267.2443700581789L730.6883555836976,334.7408074699342L889.609974399209,379.00657419115305Z" fill="#d3eda3" stroke="#d3eda3" fill-opacity="1" stroke-opacity="1"/><path d="M820.3266597911716,267.2443700581789L889.609974399209,379.00657419115305L925.1878510974348,317.0452785305679Z" fill="#c6e5a5" stroke="#c6e5a5" fill-opacity="1" stroke-opacity="1"/><path d="M820.3266597911716,267.2443700581789L925.1878510974348,317.0452785305679L926.1380898579955,230.06731431931257Z" fill="#c3e3a3" stroke="#c3e3a3" fill-opacity="1" stroke-opacity="1"/><path d="M926.1380898579955,230.06731431931257L925.1878510974348,317.0452785305679L1061.3252756558359,227.50571224838495Z" fill="#afd4aa" stroke="#afd4aa" fill-opacity="1" stroke-opacity="1"/><path d="M1061.3252756558359,227.50571224838495L925.1878510974348,317.0452785305679L1021.6316116787493,362.65844762325287Z" fill="#a7cfb0" stroke="#a7cfb0" fill-opacity="1" stroke-opacity="1"/><path d="M1061.3252756558359,227.50571224838495L1021.6316116787493,362.65844762325287L1151.0349674522877,267.9854048602283Z" fill="#95c1b6" stroke="#95c1b6" fill-opacity="1" stroke-opacity="1"/><path d="M1151.0349674522877,267.9854048602283L1021.6316116787493,362.65844762325287L1163.2048076204956,367.6911880262196Z" fill="#8dbbbc" stroke="#8dbbbc" fill-opacity="1" stroke-opacity="1"/><path d="M1151.0349674522877,267.9854048602283L1163.2048076204956,367.6911880262196L1242.056280784309,319.23556320369244Z" fill="#80aec3" stroke="#80aec3" fill-opacity="1" stroke-opacity="1"/><path d="M1151.0349674522877,267.9854048602283L1242.056280784309,319.23556320369244L1254.3872055783868,251.29560926929116Z" fill="#80a8c3" stroke="#80a8c3" fill-opacity="1" stroke-opacity="1"/><path d="M1254.3872055783868,251.29560926929116L1242.056280784309,319.23556320369244L1343.133837301284,321.8410010635853Z" fill="#809dcb" stroke="#809dcb" fill-opacity="1" stroke-opacity="1"/><path d="M1254.3872055783868,251.29560926929116L1343.133837301284,321.8410010635853L1348.9447056129575,246.9038425758481Z" fill="#8096cd" stroke="#8096cd" fill-opacity="1" stroke-opacity="1"/><path d="M-69.22994183376431,313.0122251994908L-64.11214135587215,620.8621931262314L-33.45192553475499,432.19323026016355Z" fill="#c6947f" stroke="#c6947f" fill-opacity="1" stroke-opacity="1"/><path d="M-69.22994183376431,313.0122251994908L-33.45192553475499,432.19323026016355L84.46666795760393,318.15781604498625Z" fill="#ea9e82" stroke="#ea9e82" fill-opacity="1" stroke-opacity="1"/><path d="M84.46666795760393,318.15781604498625L-33.45192553475499,432.19323026016355L27.177807074040174,464.92807909846306Z" fill="#dda482" stroke="#dda482" fill-opacity="1" stroke-opacity="1"/><path d="M84.46666795760393,318.15781604498625L27.177807074040174,464.92807909846306L138.84171528741717,373.9677950553596Z" fill="#e8ae84" stroke="#e8ae84" fill-opacity="1" stroke-opacity="1"/><path d="M138.84171528741717,373.9677950553596L27.177807074040174,464.92807909846306L133.74046061187983,470.61844661831856Z" fill="#dab183" stroke="#dab183" fill-opacity="1" stroke-opacity="1"/><path d="M138.84171528741717,373.9677950553596L133.74046061187983,470.61844661831856L212.2428858652711,343.7895888835192Z" fill="#edbd85" stroke="#edbd85" fill-opacity="1" stroke-opacity="1"/><path d="M212.2428858652711,343.7895888835192L133.74046061187983,470.61844661831856L283.40931257233024,454.9975267611444Z" fill="#e8c586" stroke="#e8c586" fill-opacity="1" stroke-opacity="1"/><path d="M212.2428858652711,343.7895888835192L283.40931257233024,454.9975267611444L378.1649625301361,361.3350344635546Z" fill="#f5d690" stroke="#f5d690" fill-opacity="1" stroke-opacity="1"/><path d="M378.1649625301361,361.3350344635546L283.40931257233024,454.9975267611444L388.5503687337041,483.12706468626857Z" fill="#e6e196" stroke="#e6e196" fill-opacity="1" stroke-opacity="1"/><path d="M378.1649625301361,361.3350344635546L388.5503687337041,483.12706468626857L427.3319021053612,489.6751025505364Z" fill="#e3ea9b" stroke="#e3ea9b" fill-opacity="1" stroke-opacity="1"/><path d="M378.1649625301361,361.3350344635546L427.3319021053612,489.6751025505364L459.36346780508757,330.62963154166937Z" fill="#f3ef9f" stroke="#f3ef9f" fill-opacity="1" stroke-opacity="1"/><path d="M459.36346780508757,330.62963154166937L427.3319021053612,489.6751025505364L511.30685245618224,343.07416547089815Z" fill="#f2f2a1" stroke="#f2f2a1" fill-opacity="1" stroke-opacity="1"/><path d="M511.30685245618224,343.07416547089815L427.3319021053612,489.6751025505364L559.1544792987406,464.2211669497192Z" fill="#e3f3a1" stroke="#e3f3a1" fill-opacity="1" stroke-opacity="1"/><path d="M511.30685245618224,343.07416547089815L559.1544792987406,464.2211669497192L646.64107138291,333.3629267476499Z" fill="#eff7a4" stroke="#eff7a4" fill-opacity="1" stroke-opacity="1"/><path d="M646.64107138291,333.3629267476499L559.1544792987406,464.2211669497192L665.2301403321326,433.6286817677319Z" fill="#e3faa5" stroke="#e3faa5" fill-opacity="1" stroke-opacity="1"/><path d="M646.64107138291,333.3629267476499L665.2301403321326,433.6286817677319L730.6883555836976,334.7408074699342Z" fill="#e7f7a6" stroke="#e7f7a6" fill-opacity="1" stroke-opacity="1"/><path d="M730.6883555836976,334.7408074699342L665.2301403321326,433.6286817677319L718.5584142431617,483.31150157377124Z" fill="#d4f5a5" stroke="#d4f5a5" fill-opacity="1" stroke-opacity="1"/><path d="M730.6883555836976,334.7408074699342L718.5584142431617,483.31150157377124L816.0084066540003,460.1218236424029Z" fill="#c8f1a4" stroke="#c8f1a4" fill-opacity="1" stroke-opacity="1"/><path d="M730.6883555836976,334.7408074699342L816.0084066540003,460.1218236424029L889.609974399209,379.00657419115305Z" fill="#c8eda4" stroke="#c8eda4" fill-opacity="1" stroke-opacity="1"/><path d="M889.609974399209,379.00657419115305L816.0084066540003,460.1218236424029L929.9605027399957,427.88054356351495Z" fill="#b1e5a6" stroke="#b1e5a6" fill-opacity="1" stroke-opacity="1"/><path d="M889.609974399209,379.00657419115305L929.9605027399957,427.88054356351495L925.1878510974348,317.0452785305679Z" fill="#b7dfaa" stroke="#b7dfaa" fill-opacity="1" stroke-opacity="1"/><path d="M925.1878510974348,317.0452785305679L929.9605027399957,427.88054356351495L1021.6316116787493,362.65844762325287Z" fill="#aed7af" stroke="#aed7af" fill-opacity="1" stroke-opacity="1"/><path d="M1021.6316116787493,362.65844762325287L929.9605027399957,427.88054356351495L1010.202649962157,437.766717299819Z" fill="#9bd2b1" stroke="#9bd2b1" fill-opacity="1" stroke-opacity="1"/><path d="M1021.6316116787493,362.65844762325287L1010.202649962157,437.766717299819L1120.245009008795,488.92368959262967Z" fill="#85c6b7" stroke="#85c6b7" fill-opacity="1" stroke-opacity="1"/><path d="M1021.6316116787493,362.65844762325287L1120.245009008795,488.92368959262967L1163.2048076204956,367.6911880262196Z" fill="#80bdbc" stroke="#80bdbc" fill-opacity="1" stroke-opacity="1"/><path d="M1163.2048076204956,367.6911880262196L1120.245009008795,488.92368959262967L1219.0448581427336,416.4800166338682Z" fill="#6bb0c2" stroke="#6bb0c2" fill-opacity="1" stroke-opacity="1"/><path d="M1163.2048076204956,367.6911880262196L1219.0448581427336,416.4800166338682L1242.056280784309,319.23556320369244Z" fill="#7caac7" stroke="#7caac7" fill-opacity="1" stroke-opacity="1"/><path d="M1242.056280784309,319.23556320369244L1219.0448581427336,416.4800166338682L1312.2829221002758,443.854989297688Z" fill="#74a1cb" stroke="#74a1cb" fill-opacity="1" stroke-opacity="1"/><path d="M1242.056280784309,319.23556320369244L1312.2829221002758,443.854989297688L1343.133837301284,321.8410010635853Z" fill="#7e99d0" stroke="#7e99d0" fill-opacity="1" stroke-opacity="1"/><path d="M1343.133837301284,321.8410010635853L1312.2829221002758,443.854989297688L1343.5589064098895,543.9526572264731Z" fill="#6792d2" stroke="#6792d2" fill-opacity="1" stroke-opacity="1"/><path d="M-33.45192553475499,432.19323026016355L-64.11214135587215,620.8621931262314L-17.305322010070086,538.5789350047708Z" fill="#a5818a" stroke="#a5818a" fill-opacity="1" stroke-opacity="1"/><path d="M-33.45192553475499,432.19323026016355L-17.305322010070086,538.5789350047708L27.177807074040174,464.92807909846306Z" fill="#c39b81" stroke="#c39b81" fill-opacity="1" stroke-opacity="1"/><path d="M27.177807074040174,464.92807909846306L-17.305322010070086,538.5789350047708L73.88558257371187,537.6738071255386Z" fill="#b49488" stroke="#b49488" fill-opacity="1" stroke-opacity="1"/><path d="M27.177807074040174,464.92807909846306L73.88558257371187,537.6738071255386L133.74046061187983,470.61844661831856Z" fill="#c4a685" stroke="#c4a685" fill-opacity="1" stroke-opacity="1"/><path d="M133.74046061187983,470.61844661831856L73.88558257371187,537.6738071255386L122.7522830478847,565.2338038012385Z" fill="#b69f8d" stroke="#b69f8d" fill-opacity="1" stroke-opacity="1"/><path d="M133.74046061187983,470.61844661831856L122.7522830478847,565.2338038012385L288.98391218855977,584.5777019672096Z" fill="#b4a792" stroke="#b4a792" fill-opacity="1" stroke-opacity="1"/><path d="M133.74046061187983,470.61844661831856L288.98391218855977,584.5777019672096L283.40931257233024,454.9975267611444Z" fill="#cabf8d" stroke="#cabf8d" fill-opacity="1" stroke-opacity="1"/><path d="M283.40931257233024,454.9975267611444L288.98391218855977,584.5777019672096L369.17773455381393,516.6113837063313Z" fill="#c3c89a" stroke="#c3c89a" fill-opacity="1" stroke-opacity="1"/><path d="M283.40931257233024,454.9975267611444L369.17773455381393,516.6113837063313L388.5503687337041,483.12706468626857Z" fill="#d4dc97" stroke="#d4dc97" fill-opacity="1" stroke-opacity="1"/><path d="M388.5503687337041,483.12706468626857L369.17773455381393,516.6113837063313L427.3319021053612,489.6751025505364Z" fill="#cfe19f" stroke="#cfe19f" fill-opacity="1" stroke-opacity="1"/><path d="M427.3319021053612,489.6751025505364L369.17773455381393,516.6113837063313L435.299690682441,561.7917259782553Z" fill="#c1d9a6" stroke="#c1d9a6" fill-opacity="1" stroke-opacity="1"/><path d="M427.3319021053612,489.6751025505364L435.299690682441,561.7917259782553L559.1544792987406,464.2211669497192Z" fill="#c8e6a6" stroke="#c8e6a6" fill-opacity="1" stroke-opacity="1"/><path d="M559.1544792987406,464.2211669497192L435.299690682441,561.7917259782553L569.8207245022058,585.4713499359787Z" fill="#b4dbae" stroke="#b4dbae" fill-opacity="1" stroke-opacity="1"/><path d="M559.1544792987406,464.2211669497192L569.8207245022058,585.4713499359787L671.7592177353799,573.8569744676352Z" fill="#addeb1" stroke="#addeb1" fill-opacity="1" stroke-opacity="1"/><path d="M559.1544792987406,464.2211669497192L671.7592177353799,573.8569744676352L665.2301403321326,433.6286817677319Z" fill="#c6f3a8" stroke="#c6f3a8" fill-opacity="1" stroke-opacity="1"/><path d="M665.2301403321326,433.6286817677319L671.7592177353799,573.8569744676352L718.5584142431617,483.31150157377124Z" fill="#baeda8" stroke="#baeda8" fill-opacity="1" stroke-opacity="1"/><path d="M718.5584142431617,483.31150157377124L671.7592177353799,573.8569744676352L771.5836805105209,558.5671632550657Z" fill="#9edbb1" stroke="#9edbb1" fill-opacity="1" stroke-opacity="1"/><path d="M718.5584142431617,483.31150157377124L771.5836805105209,558.5671632550657L816.0084066540003,460.1218236424029Z" fill="#a9e5a9" stroke="#a9e5a9" fill-opacity="1" stroke-opacity="1"/><path d="M816.0084066540003,460.1218236424029L771.5836805105209,558.5671632550657L850.0347901508212,548.1067001819611Z" fill="#96daad" stroke="#96daad" fill-opacity="1" stroke-opacity="1"/><path d="M816.0084066540003,460.1218236424029L850.0347901508212,548.1067001819611L929.9605027399957,427.88054356351495Z" fill="#a2e5a5" stroke="#a2e5a5" fill-opacity="1" stroke-opacity="1"/><path d="M929.9605027399957,427.88054356351495L850.0347901508212,548.1067001819611L924.6987365186214,546.0657047666609Z" fill="#8ad4ae" stroke="#8ad4ae" fill-opacity="1" stroke-opacity="1"/><path d="M929.9605027399957,427.88054356351495L924.6987365186214,546.0657047666609L1010.202649962157,437.766717299819Z" fill="#8fd7ac" stroke="#8fd7ac" fill-opacity="1" stroke-opacity="1"/><path d="M1010.202649962157,437.766717299819L924.6987365186214,546.0657047666609L1082.155870757997,542.2891460172832Z" fill="#70c0b8" stroke="#70c0b8" fill-opacity="1" stroke-opacity="1"/><path d="M1010.202649962157,437.766717299819L1082.155870757997,542.2891460172832L1120.245009008795,488.92368959262967Z" fill="#6abcba" stroke="#6abcba" fill-opacity="1" stroke-opacity="1"/><path d="M1120.245009008795,488.92368959262967L1082.155870757997,542.2891460172832L1143.6964986659586,571.2939369678497Z" fill="#49a2c8" stroke="#49a2c8" fill-opacity="1" stroke-opacity="1"/><path d="M1120.245009008795,488.92368959262967L1143.6964986659586,571.2939369678497L1221.3517810963094,589.7308966331184Z" fill="#3594d0" stroke="#3594d0" fill-opacity="1" stroke-opacity="1"/><path d="M1120.245009008795,488.92368959262967L1221.3517810963094,589.7308966331184L1219.0448581427336,416.4800166338682Z" fill="#4fa3c8" stroke="#4fa3c8" fill-opacity="1" stroke-opacity="1"/><path d="M1219.0448581427336,416.4800166338682L1221.3517810963094,589.7308966331184L1312.2829221002758,443.854989297688Z" fill="#569ecb" stroke="#569ecb" fill-opacity="1" stroke-opacity="1"/><path d="M1312.2829221002758,443.854989297688L1221.3517810963094,589.7308966331184L1343.5589064098895,543.9526572264731Z" fill="#4086d7" stroke="#4086d7" fill-opacity="1" stroke-opacity="1"/><path d="M-17.305322010070086,538.5789350047708L-64.11214135587215,620.8621931262314L15.189397875219584,635.4452322050929Z" fill="#836a99" stroke="#836a99" fill-opacity="1" stroke-opacity="1"/><path d="M-17.305322010070086,538.5789350047708L15.189397875219584,635.4452322050929L73.88558257371187,537.6738071255386Z" fill="#967d94" stroke="#967d94" fill-opacity="1" stroke-opacity="1"/><path d="M73.88558257371187,537.6738071255386L15.189397875219584,635.4452322050929L122.7522830478847,565.2338038012385Z" fill="#968297" stroke="#968297" fill-opacity="1" stroke-opacity="1"/><path d="M122.7522830478847,565.2338038012385L15.189397875219584,635.4452322050929L175.79779740422964,687.8523323871195Z" fill="#7f75a2" stroke="#7f75a2" fill-opacity="1" stroke-opacity="1"/><path d="M122.7522830478847,565.2338038012385L175.79779740422964,687.8523323871195L249.946714527905,650.2472871169448Z" fill="#8382a5" stroke="#8382a5" fill-opacity="1" stroke-opacity="1"/><path d="M122.7522830478847,565.2338038012385L249.946714527905,650.2472871169448L288.98391218855977,584.5777019672096Z" fill="#9896a0" stroke="#9896a0" fill-opacity="1" stroke-opacity="1"/><path d="M288.98391218855977,584.5777019672096L249.946714527905,650.2472871169448L386.9320315681398,624.1682625561953Z" fill="#8ea0ae" stroke="#8ea0ae" fill-opacity="1" stroke-opacity="1"/><path d="M288.98391218855977,584.5777019672096L386.9320315681398,624.1682625561953L369.17773455381393,516.6113837063313Z" fill="#a5b9aa" stroke="#a5b9aa" fill-opacity="1" stroke-opacity="1"/><path d="M369.17773455381393,516.6113837063313L386.9320315681398,624.1682625561953L435.299690682441,561.7917259782553Z" fill="#aac5ae" stroke="#aac5ae" fill-opacity="1" stroke-opacity="1"/><path d="M435.299690682441,561.7917259782553L386.9320315681398,624.1682625561953L433.82193399593234,611.443815305829Z" fill="#99bdb7" stroke="#99bdb7" fill-opacity="1" stroke-opacity="1"/><path d="M435.299690682441,561.7917259782553L433.82193399593234,611.443815305829L569.8207245022058,585.4713499359787Z" fill="#9dc6b6" stroke="#9dc6b6" fill-opacity="1" stroke-opacity="1"/><path d="M569.8207245022058,585.4713499359787L433.82193399593234,611.443815305829L562.2265515290201,684.0724855288863Z" fill="#85b9c0" stroke="#85b9c0" fill-opacity="1" stroke-opacity="1"/><path d="M569.8207245022058,585.4713499359787L562.2265515290201,684.0724855288863L627.0707388781011,636.4745659939945Z" fill="#7eb9c4" stroke="#7eb9c4" fill-opacity="1" stroke-opacity="1"/><path d="M569.8207245022058,585.4713499359787L627.0707388781011,636.4745659939945L671.7592177353799,573.8569744676352Z" fill="#8fc9be" stroke="#8fc9be" fill-opacity="1" stroke-opacity="1"/><path d="M671.7592177353799,573.8569744676352L627.0707388781011,636.4745659939945L782.9912146739662,616.8558385595679Z" fill="#7ec1c0" stroke="#7ec1c0" fill-opacity="1" stroke-opacity="1"/><path d="M671.7592177353799,573.8569744676352L782.9912146739662,616.8558385595679L771.5836805105209,558.5671632550657Z" fill="#83c7ba" stroke="#83c7ba" fill-opacity="1" stroke-opacity="1"/><path d="M771.5836805105209,558.5671632550657L782.9912146739662,616.8558385595679L850.0347901508212,548.1067001819611Z" fill="#7dc6b8" stroke="#7dc6b8" fill-opacity="1" stroke-opacity="1"/><path d="M850.0347901508212,548.1067001819611L782.9912146739662,616.8558385595679L820.3331444226205,689.1193957999349Z" fill="#63b4c1" stroke="#63b4c1" fill-opacity="1" stroke-opacity="1"/><path d="M850.0347901508212,548.1067001819611L820.3331444226205,689.1193957999349L968.0140240862966,640.3470024093986Z" fill="#52aac5" stroke="#52aac5" fill-opacity="1" stroke-opacity="1"/><path d="M850.0347901508212,548.1067001819611L968.0140240862966,640.3470024093986L924.6987365186214,546.0657047666609Z" fill="#62b6be" stroke="#62b6be" fill-opacity="1" stroke-opacity="1"/><path d="M924.6987365186214,546.0657047666609L968.0140240862966,640.3470024093986L1082.155870757997,542.2891460172832Z" fill="#51a9c5" stroke="#51a9c5" fill-opacity="1" stroke-opacity="1"/><path d="M1082.155870757997,542.2891460172832L968.0140240862966,640.3470024093986L1071.0543019883335,648.4606035798788Z" fill="#3392d1" stroke="#3392d1" fill-opacity="1" stroke-opacity="1"/><path d="M1082.155870757997,542.2891460172832L1071.0543019883335,648.4606035798788L1143.6964986659586,571.2939369678497Z" fill="#3191d2" stroke="#3191d2" fill-opacity="1" stroke-opacity="1"/><path d="M1143.6964986659586,571.2939369678497L1071.0543019883335,648.4606035798788L1176.967057455331,620.5419912002981Z" fill="#1b81da" stroke="#1b81da" fill-opacity="1" stroke-opacity="1"/><path d="M1143.6964986659586,571.2939369678497L1176.967057455331,620.5419912002981L1221.3517810963094,589.7308966331184Z" fill="#1d80db" stroke="#1d80db" fill-opacity="1" stroke-opacity="1"/><path d="M1221.3517810963094,589.7308966331184L1176.967057455331,620.5419912002981L1280.1896189153194,620.3543997369707Z" fill="#1571e2" stroke="#1571e2" fill-opacity="1" stroke-opacity="1"/><path d="M1221.3517810963094,589.7308966331184L1280.1896189153194,620.3543997369707L1343.5589064098895,543.9526572264731Z" fill="#2271e3" stroke="#2271e3" fill-opacity="1" stroke-opacity="1"/><path d="M1343.5589064098895,543.9526572264731L1280.1896189153194,620.3543997369707L1328.2848202064633,630.7811313308775Z" fill="#1b65e9" stroke="#1b65e9" fill-opacity="1" stroke-opacity="1"/><path d="M1343.5589064098895,543.9526572264731L1328.2848202064633,630.7811313308775L1364.2085298895836,874.737885221839Z" fill="#003ff9" stroke="#003ff9" fill-opacity="1" stroke-opacity="1"/><path d="M-64.11214135587215,620.8621931262314L-40.743194594979286,881.4320592582226L-51.42623696476221,760.1869940198958Z" fill="#6628a6" stroke="#6628a6" fill-opacity="1" stroke-opacity="1"/><path d="M-64.11214135587215,620.8621931262314L-51.42623696476221,760.1869940198958L15.189397875219584,635.4452322050929Z" fill="#684ba6" stroke="#684ba6" fill-opacity="1" stroke-opacity="1"/><path d="M15.189397875219584,635.4452322050929L-51.42623696476221,760.1869940198958L43.5585249401629,735.7165507785976Z" fill="#6b43a7" stroke="#6b43a7" fill-opacity="1" stroke-opacity="1"/><path d="M15.189397875219584,635.4452322050929L43.5585249401629,735.7165507785976L175.79779740422964,687.8523323871195Z" fill="#725aa9" stroke="#725aa9" fill-opacity="1" stroke-opacity="1"/><path d="M175.79779740422964,687.8523323871195L43.5585249401629,735.7165507785976L175.61993442475796,731.2653719075024Z" fill="#7758aa" stroke="#7758aa" fill-opacity="1" stroke-opacity="1"/><path d="M175.79779740422964,687.8523323871195L175.61993442475796,731.2653719075024L237.21773942932487,768.458980191499Z" fill="#7d60ac" stroke="#7d60ac" fill-opacity="1" stroke-opacity="1"/><path d="M175.79779740422964,687.8523323871195L237.21773942932487,768.458980191499L249.946714527905,650.2472871169448Z" fill="#7e6fad" stroke="#7e6fad" fill-opacity="1" stroke-opacity="1"/><path d="M249.946714527905,650.2472871169448L237.21773942932487,768.458980191499L365.2259987965226,747.8930346854031Z" fill="#7f73b5" stroke="#7f73b5" fill-opacity="1" stroke-opacity="1"/><path d="M249.946714527905,650.2472871169448L365.2259987965226,747.8930346854031L386.9320315681398,624.1682625561953Z" fill="#7f90bb" stroke="#7f90bb" fill-opacity="1" stroke-opacity="1"/><path d="M386.9320315681398,624.1682625561953L365.2259987965226,747.8930346854031L423.0949852988124,716.0427000746131Z" fill="#7f93c1" stroke="#7f93c1" fill-opacity="1" stroke-opacity="1"/><path d="M386.9320315681398,624.1682625561953L423.0949852988124,716.0427000746131L433.82193399593234,611.443815305829Z" fill="#7fa9c1" stroke="#7fa9c1" fill-opacity="1" stroke-opacity="1"/><path d="M433.82193399593234,611.443815305829L423.0949852988124,716.0427000746131L562.2265515290201,684.0724855288863Z" fill="#7da5c7" stroke="#7da5c7" fill-opacity="1" stroke-opacity="1"/><path d="M562.2265515290201,684.0724855288863L423.0949852988124,716.0427000746131L527.8979455679655,778.6053923889995Z" fill="#7b91c8" stroke="#7b91c8" fill-opacity="1" stroke-opacity="1"/><path d="M562.2265515290201,684.0724855288863L527.8979455679655,778.6053923889995L629.3363881111145,774.7144323028624Z" fill="#778dca" stroke="#778dca" fill-opacity="1" stroke-opacity="1"/><path d="M562.2265515290201,684.0724855288863L629.3363881111145,774.7144323028624L627.0707388781011,636.4745659939945Z" fill="#75a1cb" stroke="#75a1cb" fill-opacity="1" stroke-opacity="1"/><path d="M627.0707388781011,636.4745659939945L629.3363881111145,774.7144323028624L760.8082637935877,744.5555468462408Z" fill="#6d98cb" stroke="#6d98cb" fill-opacity="1" stroke-opacity="1"/><path d="M627.0707388781011,636.4745659939945L760.8082637935877,744.5555468462408L782.9912146739662,616.8558385595679Z" fill="#64a9cb" stroke="#64a9cb" fill-opacity="1" stroke-opacity="1"/><path d="M782.9912146739662,616.8558385595679L760.8082637935877,744.5555468462408L820.3331444226205,689.1193957999349Z" fill="#589dca" stroke="#589dca" fill-opacity="1" stroke-opacity="1"/><path d="M820.3331444226205,689.1193957999349L760.8082637935877,744.5555468462408L877.5099831260741,725.5817028880119Z" fill="#528dca" stroke="#528dca" fill-opacity="1" stroke-opacity="1"/><path d="M820.3331444226205,689.1193957999349L877.5099831260741,725.5817028880119L921.4365919493139,716.092993337661Z" fill="#478acc" stroke="#478acc" fill-opacity="1" stroke-opacity="1"/><path d="M820.3331444226205,689.1193957999349L921.4365919493139,716.092993337661L968.0140240862966,640.3470024093986Z" fill="#4090cf" stroke="#4090cf" fill-opacity="1" stroke-opacity="1"/><path d="M968.0140240862966,640.3470024093986L921.4365919493139,716.092993337661L1061.9774906896055,714.9636732041836Z" fill="#2d7ed7" stroke="#2d7ed7" fill-opacity="1" stroke-opacity="1"/><path d="M968.0140240862966,640.3470024093986L1061.9774906896055,714.9636732041836L1071.0543019883335,648.4606035798788Z" fill="#207ddb" stroke="#207ddb" fill-opacity="1" stroke-opacity="1"/><path d="M1071.0543019883335,648.4606035798788L1061.9774906896055,714.9636732041836L1176.967057455331,620.5419912002981Z" fill="#1074e1" stroke="#1074e1" fill-opacity="1" stroke-opacity="1"/><path d="M1176.967057455331,620.5419912002981L1061.9774906896055,714.9636732041836L1180.315376073122,776.3074027188122Z" fill="#075ce6" stroke="#075ce6" fill-opacity="1" stroke-opacity="1"/><path d="M1176.967057455331,620.5419912002981L1180.315376073122,776.3074027188122L1264.2331733740866,753.0724696628749Z" fill="#004bec" stroke="#004bec" fill-opacity="1" stroke-opacity="1"/><path d="M1176.967057455331,620.5419912002981L1264.2331733740866,753.0724696628749L1280.1896189153194,620.3543997369707Z" fill="#0059ef" stroke="#0059ef" fill-opacity="1" stroke-opacity="1"/><path d="M1280.1896189153194,620.3543997369707L1264.2331733740866,753.0724696628749L1326.7870460264385,730.5530201084912Z" fill="#0042f4" stroke="#0042f4" fill-opacity="1" stroke-opacity="1"/><path d="M1280.1896189153194,620.3543997369707L1326.7870460264385,730.5530201084912L1328.2848202064633,630.7811313308775Z" fill="#004ef5" stroke="#004ef5" fill-opacity="1" stroke-opacity="1"/><path d="M1328.2848202064633,630.7811313308775L1326.7870460264385,730.5530201084912L1364.2085298895836,874.737885221839Z" fill="#0028f9" stroke="#0028f9" fill-opacity="1" stroke-opacity="1"/><path d="M-51.42623696476221,760.1869940198958L-40.743194594979286,881.4320592582226L18.5639744438231,825.8633043058217Z" fill="#691ba7" stroke="#691ba7" fill-opacity="1" stroke-opacity="1"/><path d="M-51.42623696476221,760.1869940198958L18.5639744438231,825.8633043058217L43.5585249401629,735.7165507785976Z" fill="#6b2aa7" stroke="#6b2aa7" fill-opacity="1" stroke-opacity="1"/><path d="M43.5585249401629,735.7165507785976L18.5639744438231,825.8633043058217L137.66526924446225,813.2214176096022Z" fill="#712fa9" stroke="#712fa9" fill-opacity="1" stroke-opacity="1"/><path d="M43.5585249401629,735.7165507785976L137.66526924446225,813.2214176096022L175.61993442475796,731.2653719075024Z" fill="#7645aa" stroke="#7645aa" fill-opacity="1" stroke-opacity="1"/><path d="M175.61993442475796,731.2653719075024L137.66526924446225,813.2214176096022L237.21773942932487,768.458980191499Z" fill="#7c4dac" stroke="#7c4dac" fill-opacity="1" stroke-opacity="1"/><path d="M237.21773942932487,768.458980191499L137.66526924446225,813.2214176096022L260.70066990330815,842.1837655082345Z" fill="#7e47ac" stroke="#7e47ac" fill-opacity="1" stroke-opacity="1"/><path d="M237.21773942932487,768.458980191499L260.70066990330815,842.1837655082345L365.2259987965226,747.8930346854031Z" fill="#7f5bb5" stroke="#7f5bb5" fill-opacity="1" stroke-opacity="1"/><path d="M365.2259987965226,747.8930346854031L260.70066990330815,842.1837655082345L317.10016690194607,870.1357872225344Z" fill="#7f5bb8" stroke="#7f5bb8" fill-opacity="1" stroke-opacity="1"/><path d="M365.2259987965226,747.8930346854031L317.10016690194607,870.1357872225344L467.9357225075364,825.1701243035495Z" fill="#7f68c0" stroke="#7f68c0" fill-opacity="1" stroke-opacity="1"/><path d="M365.2259987965226,747.8930346854031L467.9357225075364,825.1701243035495L423.0949852988124,716.0427000746131Z" fill="#7f7ec4" stroke="#7f7ec4" fill-opacity="1" stroke-opacity="1"/><path d="M423.0949852988124,716.0427000746131L467.9357225075364,825.1701243035495L527.8979455679655,778.6053923889995Z" fill="#7d7ec7" stroke="#7d7ec7" fill-opacity="1" stroke-opacity="1"/><path d="M527.8979455679655,778.6053923889995L467.9357225075364,825.1701243035495L521.6758813895285,867.9359527118504Z" fill="#7b74c8" stroke="#7b74c8" fill-opacity="1" stroke-opacity="1"/><path d="M527.8979455679655,778.6053923889995L521.6758813895285,867.9359527118504L633.9641949720681,873.4385155513883Z" fill="#7877c9" stroke="#7877c9" fill-opacity="1" stroke-opacity="1"/><path d="M527.8979455679655,778.6053923889995L633.9641949720681,873.4385155513883L629.3363881111145,774.7144323028624Z" fill="#7679ca" stroke="#7679ca" fill-opacity="1" stroke-opacity="1"/><path d="M629.3363881111145,774.7144323028624L633.9641949720681,873.4385155513883L710.1187047734857,831.3612110540271Z" fill="#7079cc" stroke="#7079cc" fill-opacity="1" stroke-opacity="1"/><path d="M629.3363881111145,774.7144323028624L710.1187047734857,831.3612110540271L760.8082637935877,744.5555468462408Z" fill="#687dcb" stroke="#687dcb" fill-opacity="1" stroke-opacity="1"/><path d="M760.8082637935877,744.5555468462408L710.1187047734857,831.3612110540271L821.1211451143026,822.7798179537058Z" fill="#5c72cb" stroke="#5c72cb" fill-opacity="1" stroke-opacity="1"/><path d="M760.8082637935877,744.5555468462408L821.1211451143026,822.7798179537058L877.5099831260741,725.5817028880119Z" fill="#527cca" stroke="#527cca" fill-opacity="1" stroke-opacity="1"/><path d="M877.5099831260741,725.5817028880119L821.1211451143026,822.7798179537058L913.6539556644857,855.1476634666324Z" fill="#4867cc" stroke="#4867cc" fill-opacity="1" stroke-opacity="1"/><path d="M877.5099831260741,725.5817028880119L913.6539556644857,855.1476634666324L921.4365919493139,716.092993337661Z" fill="#406fcf" stroke="#406fcf" fill-opacity="1" stroke-opacity="1"/><path d="M921.4365919493139,716.092993337661L913.6539556644857,855.1476634666324L1012.7282428182662,813.9872944541276Z" fill="#355bd3" stroke="#355bd3" fill-opacity="1" stroke-opacity="1"/><path d="M921.4365919493139,716.092993337661L1012.7282428182662,813.9872944541276L1061.9774906896055,714.9636732041836Z" fill="#2964d8" stroke="#2964d8" fill-opacity="1" stroke-opacity="1"/><path d="M1061.9774906896055,714.9636732041836L1012.7282428182662,813.9872944541276L1180.315376073122,776.3074027188122Z" fill="#144de0" stroke="#144de0" fill-opacity="1" stroke-opacity="1"/><path d="M1180.315376073122,776.3074027188122L1012.7282428182662,813.9872944541276L1161.856974028051,868.3979173749685Z" fill="#0c3ae4" stroke="#0c3ae4" fill-opacity="1" stroke-opacity="1"/><path d="M1180.315376073122,776.3074027188122L1161.856974028051,868.3979173749685L1276.8007109686732,832.4971355311573Z" fill="#002aec" stroke="#002aec" fill-opacity="1" stroke-opacity="1"/><path d="M1180.315376073122,776.3074027188122L1276.8007109686732,832.4971355311573L1264.2331733740866,753.0724696628749Z" fill="#002aef" stroke="#002aef" fill-opacity="1" stroke-opacity="1"/><path d="M1264.2331733740866,753.0724696628749L1276.8007109686732,832.4971355311573L1326.7870460264385,730.5530201084912Z" fill="#0027f4" stroke="#0027f4" fill-opacity="1" stroke-opacity="1"/><path d="M1326.7870460264385,730.5530201084912L1276.8007109686732,832.4971355311573L1364.2085298895836,874.737885221839Z" fill="#0015f7" stroke="#0015f7" fill-opacity="1" stroke-opacity="1"/><path d="M-40.743194594979286,881.4320592582226L1364.2085298895836,874.737885221839L633.9641949720681,873.4385155513883Z" fill="#717acc" stroke="#717acc" fill-opacity="1" stroke-opacity="1"/><path d="M-40.743194594979286,881.4320592582226L633.9641949720681,873.4385155513883L317.10016690194607,870.1357872225344Z" fill="#7f58b7" stroke="#7f58b7" fill-opacity="1" stroke-opacity="1"/><path d="M-40.743194594979286,881.4320592582226L317.10016690194607,870.1357872225344L260.70066990330815,842.1837655082345Z" fill="#7b41ab" stroke="#7b41ab" fill-opacity="1" stroke-opacity="1"/><path d="M-40.743194594979286,881.4320592582226L260.70066990330815,842.1837655082345L137.66526924446225,813.2214176096022Z" fill="#7635aa" stroke="#7635aa" fill-opacity="1" stroke-opacity="1"/><path d="M-40.743194594979286,881.4320592582226L137.66526924446225,813.2214176096022L18.5639744438231,825.8633043058217Z" fill="#6e26a8" stroke="#6e26a8" fill-opacity="1" stroke-opacity="1"/><path d="M317.10016690194607,870.1357872225344L633.9641949720681,873.4385155513883L521.6758813895285,867.9359527118504Z" fill="#7c73c7" stroke="#7c73c7" fill-opacity="1" stroke-opacity="1"/><path d="M317.10016690194607,870.1357872225344L521.6758813895285,867.9359527118504L467.9357225075364,825.1701243035495Z" fill="#7f71c6" stroke="#7f71c6" fill-opacity="1" stroke-opacity="1"/><path d="M633.9641949720681,873.4385155513883L1364.2085298895836,874.737885221839L1161.856974028051,868.3979173749685Z" fill="#1c46dd" stroke="#1c46dd" fill-opacity="1" stroke-opacity="1"/><path d="M633.9641949720681,873.4385155513883L1161.856974028051,868.3979173749685L913.6539556644857,855.1476634666324Z" fill="#4061cf" stroke="#4061cf" fill-opacity="1" stroke-opacity="1"/><path d="M633.9641949720681,873.4385155513883L913.6539556644857,855.1476634666324L821.1211451143026,822.7798179537058Z" fill="#586fca" stroke="#586fca" fill-opacity="1" stroke-opacity="1"/><path d="M633.9641949720681,873.4385155513883L821.1211451143026,822.7798179537058L710.1187047734857,831.3612110540271Z" fill="#6474cb" stroke="#6474cb" fill-opacity="1" stroke-opacity="1"/><path d="M913.6539556644857,855.1476634666324L1161.856974028051,868.3979173749685L1012.7282428182662,813.9872944541276Z" fill="#214adb" stroke="#214adb" fill-opacity="1" stroke-opacity="1"/><path d="M1161.856974028051,868.3979173749685L1364.2085298895836,874.737885221839L1276.8007109686732,832.4971355311573Z" fill="#001ff2" stroke="#001ff2" fill-opacity="1" stroke-opacity="1"/></g></svg>